1.8Hz3min_grf.mot
version=1
nRows=30
nColumns 19
inDegrees=yes
endheader
time	1_ground_force_vx	1_ground_force_vy	1_ground_force_vz	1_ground_force_px	1_ground_force_py	1_ground_force_pz	1_ground_torque_x	1_ground_torque_y	1_ground_torque_z	2_ground_force_vx	2_ground_force_vy	2_ground_force_vz	2_ground_force_px	2_ground_force_py	2_ground_force_pz	2_ground_torque_x	2_ground_torque_y	2_ground_torque_z
            1.253500	           -3.129198	          515.813086	          -56.982146	           -0.239075	            0.006198	           -0.399744	           -0.016949	            2.793772	           -0.308629	           19.447039	          460.770423	           65.833297	           -0.282834	            0.005547	           -0.721341	           -0.059398	           -1.407342	           -0.201076
            1.254000	           -3.679436	          519.597607	          -56.735265	           -0.239282	            0.006198	           -0.399761	           -0.020475	            2.891399	           -0.315714	           19.715031	          464.452868	           66.268679	           -0.282922	            0.005546	           -0.721261	           -0.059492	           -1.401521	           -0.199971
            1.254500	           -3.817767	          522.121828	          -56.861674	           -0.239380	            0.006199	           -0.400011	           -0.022187	            3.034375	           -0.330459	           20.308562	          468.871112	           67.269672	           -0.282937	            0.005547	           -0.721570	           -0.064759	           -1.495119	           -0.214507
            1.255000	           -3.772094	          525.546190	          -56.663678	           -0.239421	            0.006198	           -0.399802	           -0.022771	            3.172566	           -0.342062	           20.905207	          472.370326	           67.798114	           -0.283131	            0.005545	           -0.721220	           -0.070428	           -1.591368	           -0.228405
            1.255500	           -3.589641	          529.332106	          -56.739613	           -0.239452	            0.006199	           -0.399941	           -0.021080	            3.108525	           -0.333206	           20.985238	          476.235398	           68.468866	           -0.282974	            0.005547	           -0.721377	           -0.067277	           -1.526766	           -0.219505
            1.256000	           -3.361425	          532.938054	          -56.862287	           -0.239528	            0.006198	           -0.399674	           -0.019855	            3.147946	           -0.335873	           21.390685	          480.837334	           69.423675	           -0.283219	            0.005546	           -0.721480	           -0.069830	           -1.569690	           -0.226633
            1.256500	           -3.316481	          534.741764	          -57.083954	           -0.239638	            0.006199	           -0.400082	           -0.019721	            3.179728	           -0.339438	           21.754514	          483.966524	           70.185536	           -0.283464	            0.005545	           -0.721317	           -0.071695	           -1.594968	           -0.231305
            1.257000	           -3.408352	          537.625407	          -56.933787	           -0.239742	            0.006200	           -0.400132	           -0.020634	            3.254753	           -0.344674	           22.121688	          486.174781	           70.991031	           -0.283606	            0.005543	           -0.721137	           -0.073981	           -1.625903	           -0.237414
            1.257500	           -3.684197	          540.690294	          -57.011676	           -0.239940	            0.006200	           -0.400258	           -0.023310	            3.420934	           -0.360711	           22.386377	          490.777823	           71.476619	           -0.283805	            0.005544	           -0.721546	           -0.076026	           -1.666724	           -0.242741
            1.258000	           -3.684382	          543.573955	          -56.861745	           -0.240055	            0.006200	           -0.400342	           -0.024165	            3.565240	           -0.372950	           22.702567	          494.092049	           71.957588	           -0.283747	            0.005544	           -0.721355	           -0.079409	           -1.728241	           -0.251694
            1.258500	           -4.096632	          546.096157	          -56.528904	           -0.240230	            0.006201	           -0.400406	           -0.026979	            3.596377	           -0.372277	           23.252988	          497.407227	           72.391536	           -0.283888	            0.005543	           -0.721278	           -0.082222	           -1.758827	           -0.255976
            1.259000	           -4.372459	          548.440178	          -56.655745	           -0.240166	            0.006201	           -0.400517	           -0.028253	            3.543786	           -0.366085	           23.659558	          501.642495	           72.875750	           -0.284099	            0.005543	           -0.721552	           -0.081805	           -1.734483	           -0.251976
            1.259500	           -3.961391	          551.145982	          -57.057874	           -0.240135	            0.006202	           -0.400784	           -0.025437	            3.539036	           -0.366382	           24.208047	          505.509593	           73.452446	           -0.284176	            0.005543	           -0.721598	           -0.084967	           -1.774272	           -0.257808
            1.260000	           -4.282249	          554.029188	          -56.815434	           -0.240491	            0.006201	           -0.400587	           -0.027865	            3.605071	           -0.369698	           24.667446	          508.087703	           73.930727	           -0.284499	            0.005541	           -0.721284	           -0.087275	           -1.797646	           -0.261571
            1.260500	           -4.100039	          557.275049	          -57.031251	           -0.240712	            0.006200	           -0.400362	           -0.027584	            3.749195	           -0.383691	           25.217161	          511.587356	           74.271461	           -0.284611	            0.005541	           -0.721398	           -0.090488	           -1.835762	           -0.266513
            1.261000	           -3.916214	          558.535734	          -56.751160	           -0.240683	            0.006203	           -0.400921	           -0.027730	            3.954905	           -0.401846	           25.718215	          515.637879	           75.036547	           -0.284553	            0.005542	           -0.721558	           -0.093617	           -1.876975	           -0.273141
            1.261500	           -4.788425	          561.961566	          -56.963596	           -0.240703	            0.006201	           -0.400627	           -0.033834	            3.970701	           -0.402493	           26.267972	          519.137136	           75.471152	           -0.284697	            0.005540	           -0.721379	           -0.097201	           -1.920990	           -0.279270
            1.262000	           -4.879709	          564.123361	          -56.633097	           -0.240912	            0.006201	           -0.400578	           -0.034800	            4.023073	           -0.403882	           26.818892	          522.269574	           75.529004	           -0.285062	            0.005539	           -0.721447	           -0.100380	           -1.954798	           -0.282697
            1.262500	           -5.292918	          566.286862	          -56.714510	           -0.240998	            0.006202	           -0.400795	           -0.036825	            3.939923	           -0.394589	           27.416747	          525.401389	           75.774563	           -0.285031	            0.005539	           -0.721298	           -0.102876	           -1.971458	           -0.284328
            1.263000	           -5.385472	          569.171685	          -56.839486	           -0.241194	            0.006202	           -0.400826	           -0.037621	            3.975992	           -0.397057	           27.825349	          529.083961	           76.350662	           -0.285198	            0.005539	           -0.721407	           -0.103743	           -1.972625	           -0.284664
            1.263500	           -5.569353	          571.335034	          -56.875608	           -0.241215	            0.006203	           -0.401003	           -0.038684	            3.968383	           -0.395047	           28.423368	          532.214437	           76.971631	           -0.285521	            0.005537	           -0.721259	           -0.105698	           -1.979140	           -0.286234
            1.264000	           -5.157976	          574.220544	          -57.139400	           -0.241234	            0.006203	           -0.400942	           -0.037715	            4.198715	           -0.417805	           29.114213	          535.531127	           77.123951	           -0.285608	            0.005537	           -0.721400	           -0.109330	           -2.011034	           -0.289617
            1.264500	           -5.341824	          576.203598	          -57.176302	           -0.241098	            0.006203	           -0.401067	           -0.040314	            4.348489	           -0.431498	           29.758375	          538.846309	           77.651700	           -0.285564	            0.005537	           -0.721444	           -0.117431	           -2.126368	           -0.306425
            1.265000	           -5.205800	          580.711476	          -57.432455	           -0.241299	            0.006202	           -0.400761	           -0.040132	            4.476752	           -0.442751	           30.076583	          541.607945	           78.177634	           -0.285707	            0.005536	           -0.721186	           -0.118517	           -2.134202	           -0.308058
            1.265500	           -5.709848	          581.972421	          -57.242369	           -0.241487	            0.006204	           -0.401147	           -0.043820	            4.466349	           -0.439307	           30.485684	          545.107654	           78.377651	           -0.285640	            0.005537	           -0.721325	           -0.119919	           -2.144247	           -0.308308
            1.266000	           -5.985367	          584.496149	          -57.230864	           -0.241525	            0.006204	           -0.401353	           -0.044767	            4.371698	           -0.428054	           30.989274	          548.422496	           78.858540	           -0.285956	            0.005536	           -0.721430	           -0.124356	           -2.200743	           -0.316448
            1.266500	           -6.170940	          587.203017	          -57.906650	           -0.241663	            0.006205	           -0.401433	           -0.045510	            4.330579	           -0.427057	           31.777893	          550.633889	           79.194575	           -0.286083	            0.005535	           -0.721305	           -0.126903	           -2.198916	           -0.316258
            1.267000	           -5.804168	          589.545786	          -57.714088	           -0.241863	            0.006204	           -0.401377	           -0.044545	            4.524560	           -0.442936	           32.140187	          554.133094	           79.488468	           -0.286327	            0.005534	           -0.721267	           -0.126550	           -2.181859	           -0.312980
            1.267500	           -5.942712	          592.611093	          -57.884030	           -0.241872	            0.006205	           -0.401460	           -0.046670	            4.654000	           -0.454585	           32.928326	          556.527182	           80.247521	           -0.286273	            0.005534	           -0.721293	           -0.134251	           -2.268996	           -0.327174
            1.268000	           -5.760193	          596.036538	          -57.961510	           -0.242036	            0.006203	           -0.401097	           -0.046611	            4.823095	           -0.469021	           32.822139	          560.024528	           80.588549	           -0.286441	            0.005534	           -0.721288	           -0.133081	           -2.270680	           -0.326755
